# logo-badge — Chronicle demo asset
# Units: millimetres. Generated by scripts/demo_assets.py.
o logo-badge
g plate
v 0 0 0
v 60 0 0
v 60 0 60
v 0 0 60
v 0 8 0
v 60 8 0
v 60 8 60
v 0 8 60
f 1 2 3 4
f 5 8 7 6
f 1 5 6 2
f 2 6 7 3
f 3 7 8 4
f 4 8 5 1
g rail
v -2 8 -2
v 62 8 -2
v 62 8 62
v -2 8 62
v -2 11 -2
v 62 11 -2
v 62 11 62
v -2 11 62
f 9 10 11 12
f 13 16 15 14
f 9 13 14 10
f 10 14 15 11
f 11 15 16 12
f 12 16 13 9
g emblem-boss
v 18 11 18
v 42 11 18
v 42 11 42
v 18 11 42
v 18 21 18
v 42 21 18
v 42 21 42
v 18 21 42
f 17 18 19 20
f 21 24 23 22
f 17 21 22 18
f 18 22 23 19
f 19 23 24 20
f 20 24 21 17
