ISO-10303-21;
HEADER;
FILE_DESCRIPTION(('Chronicle demo asset'),'2;1');
FILE_NAME('mounting-bracket','2026-07-25T00:00:00',('Chronicle'),('Chronicle'),
  'scripts/demo_assets.py','Chronicle demo pack','');
FILE_SCHEMA(('AUTOMOTIVE_DESIGN { 1 0 10303 214 1 1 1 1 }'));
ENDSEC;
DATA;
#1 = APPLICATION_CONTEXT('core data for automotive mechanical design processes');
#2 = APPLICATION_PROTOCOL_DEFINITION('international standard','automotive_design',2000,#1);
#3 = PRODUCT_CONTEXT('',#1,'mechanical');
#4 = PRODUCT('mounting-bracket','mounting-bracket','',(#3));
#5 = PRODUCT_DEFINITION_FORMATION('','',#4);
#6 = PRODUCT_DEFINITION_CONTEXT('part definition',#1,'design');
#7 = PRODUCT_DEFINITION('design','',#5,#6);
#8 = PRODUCT_DEFINITION_SHAPE('','',#7);
#9 = ( LENGTH_UNIT() NAMED_UNIT(*) SI_UNIT(.MILLI.,.METRE.) );
#10 = ( NAMED_UNIT(*) PLANE_ANGLE_UNIT() SI_UNIT($,.RADIAN.) );
#11 = ( NAMED_UNIT(*) SI_UNIT($,.STERADIAN.) SOLID_ANGLE_UNIT() );
#12 = UNCERTAINTY_MEASURE_WITH_UNIT(LENGTH_MEASURE(0.01),#9,'distance_accuracy_value','confusion accuracy');
#13 = ( GEOMETRIC_REPRESENTATION_CONTEXT(3) GLOBAL_UNCERTAINTY_ASSIGNED_CONTEXT((#12)) GLOBAL_UNIT_ASSIGNED_CONTEXT((#9,#10,#11)) REPRESENTATION_CONTEXT('','3D') );
#14 = CARTESIAN_POINT('',(0,0,0));
#15 = DIRECTION('',(0,0,1));
#16 = DIRECTION('',(1,0,0));
#17 = AXIS2_PLACEMENT_3D('',#14,#15,#16);
#18 = CARTESIAN_POINT('',(0,0,0));
#19 = DIRECTION('',(0,-1,0));
#20 = DIRECTION('',(0,0,1));
#21 = AXIS2_PLACEMENT_3D('',#18,#19,#20);
#22 = PLANE('',#21);
#23 = CARTESIAN_POINT('',(0,0,0));
#24 = CARTESIAN_POINT('',(80,0,0));
#25 = CARTESIAN_POINT('',(80,0,50));
#26 = CARTESIAN_POINT('',(0,0,50));
#27 = POLY_LOOP('',(#23,#24,#25,#26));
#28 = FACE_OUTER_BOUND('',#27,.T.);
#29 = ADVANCED_FACE('',(#28),#22,.T.);
#30 = CARTESIAN_POINT('',(0,10,0));
#31 = DIRECTION('',(0,1,0));
#32 = DIRECTION('',(0,0,1));
#33 = AXIS2_PLACEMENT_3D('',#30,#31,#32);
#34 = PLANE('',#33);
#35 = CARTESIAN_POINT('',(0,10,0));
#36 = CARTESIAN_POINT('',(0,10,50));
#37 = CARTESIAN_POINT('',(80,10,50));
#38 = CARTESIAN_POINT('',(80,10,0));
#39 = POLY_LOOP('',(#35,#36,#37,#38));
#40 = FACE_OUTER_BOUND('',#39,.T.);
#41 = ADVANCED_FACE('',(#40),#34,.T.);
#42 = CARTESIAN_POINT('',(0,0,0));
#43 = DIRECTION('',(0,0,-1));
#44 = DIRECTION('',(1,0,0));
#45 = AXIS2_PLACEMENT_3D('',#42,#43,#44);
#46 = PLANE('',#45);
#47 = CARTESIAN_POINT('',(0,0,0));
#48 = CARTESIAN_POINT('',(0,10,0));
#49 = CARTESIAN_POINT('',(80,10,0));
#50 = CARTESIAN_POINT('',(80,0,0));
#51 = POLY_LOOP('',(#47,#48,#49,#50));
#52 = FACE_OUTER_BOUND('',#51,.T.);
#53 = ADVANCED_FACE('',(#52),#46,.T.);
#54 = CARTESIAN_POINT('',(80,0,0));
#55 = DIRECTION('',(1,0,0));
#56 = DIRECTION('',(0,0,1));
#57 = AXIS2_PLACEMENT_3D('',#54,#55,#56);
#58 = PLANE('',#57);
#59 = CARTESIAN_POINT('',(80,0,0));
#60 = CARTESIAN_POINT('',(80,10,0));
#61 = CARTESIAN_POINT('',(80,10,50));
#62 = CARTESIAN_POINT('',(80,0,50));
#63 = POLY_LOOP('',(#59,#60,#61,#62));
#64 = FACE_OUTER_BOUND('',#63,.T.);
#65 = ADVANCED_FACE('',(#64),#58,.T.);
#66 = CARTESIAN_POINT('',(80,0,50));
#67 = DIRECTION('',(0,0,1));
#68 = DIRECTION('',(1,0,0));
#69 = AXIS2_PLACEMENT_3D('',#66,#67,#68);
#70 = PLANE('',#69);
#71 = CARTESIAN_POINT('',(80,0,50));
#72 = CARTESIAN_POINT('',(80,10,50));
#73 = CARTESIAN_POINT('',(0,10,50));
#74 = CARTESIAN_POINT('',(0,0,50));
#75 = POLY_LOOP('',(#71,#72,#73,#74));
#76 = FACE_OUTER_BOUND('',#75,.T.);
#77 = ADVANCED_FACE('',(#76),#70,.T.);
#78 = CARTESIAN_POINT('',(0,0,50));
#79 = DIRECTION('',(-1,0,0));
#80 = DIRECTION('',(0,0,1));
#81 = AXIS2_PLACEMENT_3D('',#78,#79,#80);
#82 = PLANE('',#81);
#83 = CARTESIAN_POINT('',(0,0,50));
#84 = CARTESIAN_POINT('',(0,10,50));
#85 = CARTESIAN_POINT('',(0,10,0));
#86 = CARTESIAN_POINT('',(0,0,0));
#87 = POLY_LOOP('',(#83,#84,#85,#86));
#88 = FACE_OUTER_BOUND('',#87,.T.);
#89 = ADVANCED_FACE('',(#88),#82,.T.);
#90 = CLOSED_SHELL('',(#29,#41,#53,#65,#77,#89));
#91 = FACETED_BREP('base',#90);
#92 = CARTESIAN_POINT('',(0,10,0));
#93 = DIRECTION('',(0,-1,0));
#94 = DIRECTION('',(0,0,1));
#95 = AXIS2_PLACEMENT_3D('',#92,#93,#94);
#96 = PLANE('',#95);
#97 = CARTESIAN_POINT('',(0,10,0));
#98 = CARTESIAN_POINT('',(12,10,0));
#99 = CARTESIAN_POINT('',(12,10,50));
#100 = CARTESIAN_POINT('',(0,10,50));
#101 = POLY_LOOP('',(#97,#98,#99,#100));
#102 = FACE_OUTER_BOUND('',#101,.T.);
#103 = ADVANCED_FACE('',(#102),#96,.T.);
#104 = CARTESIAN_POINT('',(0,70,0));
#105 = DIRECTION('',(0,1,0));
#106 = DIRECTION('',(0,0,1));
#107 = AXIS2_PLACEMENT_3D('',#104,#105,#106);
#108 = PLANE('',#107);
#109 = CARTESIAN_POINT('',(0,70,0));
#110 = CARTESIAN_POINT('',(0,70,50));
#111 = CARTESIAN_POINT('',(12,70,50));
#112 = CARTESIAN_POINT('',(12,70,0));
#113 = POLY_LOOP('',(#109,#110,#111,#112));
#114 = FACE_OUTER_BOUND('',#113,.T.);
#115 = ADVANCED_FACE('',(#114),#108,.T.);
#116 = CARTESIAN_POINT('',(0,10,0));
#117 = DIRECTION('',(0,0,-1));
#118 = DIRECTION('',(1,0,0));
#119 = AXIS2_PLACEMENT_3D('',#116,#117,#118);
#120 = PLANE('',#119);
#121 = CARTESIAN_POINT('',(0,10,0));
#122 = CARTESIAN_POINT('',(0,70,0));
#123 = CARTESIAN_POINT('',(12,70,0));
#124 = CARTESIAN_POINT('',(12,10,0));
#125 = POLY_LOOP('',(#121,#122,#123,#124));
#126 = FACE_OUTER_BOUND('',#125,.T.);
#127 = ADVANCED_FACE('',(#126),#120,.T.);
#128 = CARTESIAN_POINT('',(12,10,0));
#129 = DIRECTION('',(1,0,0));
#130 = DIRECTION('',(0,0,1));
#131 = AXIS2_PLACEMENT_3D('',#128,#129,#130);
#132 = PLANE('',#131);
#133 = CARTESIAN_POINT('',(12,10,0));
#134 = CARTESIAN_POINT('',(12,70,0));
#135 = CARTESIAN_POINT('',(12,70,50));
#136 = CARTESIAN_POINT('',(12,10,50));
#137 = POLY_LOOP('',(#133,#134,#135,#136));
#138 = FACE_OUTER_BOUND('',#137,.T.);
#139 = ADVANCED_FACE('',(#138),#132,.T.);
#140 = CARTESIAN_POINT('',(12,10,50));
#141 = DIRECTION('',(0,0,1));
#142 = DIRECTION('',(1,0,0));
#143 = AXIS2_PLACEMENT_3D('',#140,#141,#142);
#144 = PLANE('',#143);
#145 = CARTESIAN_POINT('',(12,10,50));
#146 = CARTESIAN_POINT('',(12,70,50));
#147 = CARTESIAN_POINT('',(0,70,50));
#148 = CARTESIAN_POINT('',(0,10,50));
#149 = POLY_LOOP('',(#145,#146,#147,#148));
#150 = FACE_OUTER_BOUND('',#149,.T.);
#151 = ADVANCED_FACE('',(#150),#144,.T.);
#152 = CARTESIAN_POINT('',(0,10,50));
#153 = DIRECTION('',(-1,0,0));
#154 = DIRECTION('',(0,0,1));
#155 = AXIS2_PLACEMENT_3D('',#152,#153,#154);
#156 = PLANE('',#155);
#157 = CARTESIAN_POINT('',(0,10,50));
#158 = CARTESIAN_POINT('',(0,70,50));
#159 = CARTESIAN_POINT('',(0,70,0));
#160 = CARTESIAN_POINT('',(0,10,0));
#161 = POLY_LOOP('',(#157,#158,#159,#160));
#162 = FACE_OUTER_BOUND('',#161,.T.);
#163 = ADVANCED_FACE('',(#162),#156,.T.);
#164 = CLOSED_SHELL('',(#103,#115,#127,#139,#151,#163));
#165 = FACETED_BREP('wall',#164);
#166 = CARTESIAN_POINT('',(12,10,20));
#167 = DIRECTION('',(0,-1,0));
#168 = DIRECTION('',(0,0,1));
#169 = AXIS2_PLACEMENT_3D('',#166,#167,#168);
#170 = PLANE('',#169);
#171 = CARTESIAN_POINT('',(12,10,20));
#172 = CARTESIAN_POINT('',(42,10,20));
#173 = CARTESIAN_POINT('',(42,10,30));
#174 = CARTESIAN_POINT('',(12,10,30));
#175 = POLY_LOOP('',(#171,#172,#173,#174));
#176 = FACE_OUTER_BOUND('',#175,.T.);
#177 = ADVANCED_FACE('',(#176),#170,.T.);
#178 = CARTESIAN_POINT('',(12,40,20));
#179 = DIRECTION('',(0,1,0));
#180 = DIRECTION('',(0,0,1));
#181 = AXIS2_PLACEMENT_3D('',#178,#179,#180);
#182 = PLANE('',#181);
#183 = CARTESIAN_POINT('',(12,40,20));
#184 = CARTESIAN_POINT('',(12,40,30));
#185 = CARTESIAN_POINT('',(42,40,30));
#186 = CARTESIAN_POINT('',(42,40,20));
#187 = POLY_LOOP('',(#183,#184,#185,#186));
#188 = FACE_OUTER_BOUND('',#187,.T.);
#189 = ADVANCED_FACE('',(#188),#182,.T.);
#190 = CARTESIAN_POINT('',(12,10,20));
#191 = DIRECTION('',(0,0,-1));
#192 = DIRECTION('',(1,0,0));
#193 = AXIS2_PLACEMENT_3D('',#190,#191,#192);
#194 = PLANE('',#193);
#195 = CARTESIAN_POINT('',(12,10,20));
#196 = CARTESIAN_POINT('',(12,40,20));
#197 = CARTESIAN_POINT('',(42,40,20));
#198 = CARTESIAN_POINT('',(42,10,20));
#199 = POLY_LOOP('',(#195,#196,#197,#198));
#200 = FACE_OUTER_BOUND('',#199,.T.);
#201 = ADVANCED_FACE('',(#200),#194,.T.);
#202 = CARTESIAN_POINT('',(42,10,20));
#203 = DIRECTION('',(1,0,0));
#204 = DIRECTION('',(0,0,1));
#205 = AXIS2_PLACEMENT_3D('',#202,#203,#204);
#206 = PLANE('',#205);
#207 = CARTESIAN_POINT('',(42,10,20));
#208 = CARTESIAN_POINT('',(42,40,20));
#209 = CARTESIAN_POINT('',(42,40,30));
#210 = CARTESIAN_POINT('',(42,10,30));
#211 = POLY_LOOP('',(#207,#208,#209,#210));
#212 = FACE_OUTER_BOUND('',#211,.T.);
#213 = ADVANCED_FACE('',(#212),#206,.T.);
#214 = CARTESIAN_POINT('',(42,10,30));
#215 = DIRECTION('',(0,0,1));
#216 = DIRECTION('',(1,0,0));
#217 = AXIS2_PLACEMENT_3D('',#214,#215,#216);
#218 = PLANE('',#217);
#219 = CARTESIAN_POINT('',(42,10,30));
#220 = CARTESIAN_POINT('',(42,40,30));
#221 = CARTESIAN_POINT('',(12,40,30));
#222 = CARTESIAN_POINT('',(12,10,30));
#223 = POLY_LOOP('',(#219,#220,#221,#222));
#224 = FACE_OUTER_BOUND('',#223,.T.);
#225 = ADVANCED_FACE('',(#224),#218,.T.);
#226 = CARTESIAN_POINT('',(12,10,30));
#227 = DIRECTION('',(-1,0,0));
#228 = DIRECTION('',(0,0,1));
#229 = AXIS2_PLACEMENT_3D('',#226,#227,#228);
#230 = PLANE('',#229);
#231 = CARTESIAN_POINT('',(12,10,30));
#232 = CARTESIAN_POINT('',(12,40,30));
#233 = CARTESIAN_POINT('',(12,40,20));
#234 = CARTESIAN_POINT('',(12,10,20));
#235 = POLY_LOOP('',(#231,#232,#233,#234));
#236 = FACE_OUTER_BOUND('',#235,.T.);
#237 = ADVANCED_FACE('',(#236),#230,.T.);
#238 = CLOSED_SHELL('',(#177,#189,#201,#213,#225,#237));
#239 = FACETED_BREP('gusset',#238);
#240 = FACETED_BREP_SHAPE_REPRESENTATION('mounting-bracket',(#17,#91,#165,#239),#13);
#241 = SHAPE_DEFINITION_REPRESENTATION(#8,#240);
ENDSEC;
END-ISO-10303-21;
